<?xml version="1.0" encoding="UTF-8"?>
<svg id="Calque_2" data-name="Calque 2" xmlns="http://www.w3.org/2000/svg" viewBox="0 0 120.45 61.71">
  <g id="Logo_ENSG" data-name="Logo ENSG">
    <g id="Géomatique">
      <path d="m14.41,52.92c-1.65,2.84-4.52,3.87-6.62,3.87-1.12,0-2.16-.24-3.12-.72-.96-.48-1.78-1.12-2.47-1.92-.69-.79-1.22-1.7-1.61-2.71-.39-1.01-.59-2.04-.59-3.09s.19-2.14.57-3.16c.38-1.01.91-1.91,1.59-2.69.68-.78,1.48-1.4,2.41-1.86.93-.46,1.95-.69,3.05-.69.84,0,1.59.09,2.26.27.66.18,1.25.43,1.77.75.51.32.96.7,1.35,1.15.38.44.71.93.97,1.46l-.96.58c-.58-1.09-1.33-1.88-2.26-2.37-.93-.49-1.98-.74-3.15-.74-.98,0-1.87.21-2.66.63s-1.46.98-2.02,1.66c-.56.69-.99,1.47-1.29,2.34-.3.87-.44,1.77-.44,2.69,0,.98.17,1.91.51,2.79.34.88.81,1.66,1.41,2.33.6.67,1.31,1.21,2.12,1.6.81.4,1.68.6,2.62.6,1.01,0,1.97-.23,2.87-.7.9-.47,1.77-1.2,2.63-2.2v-3.23h-3.77v-.96h4.82" style="fill: #737981; stroke-width: 0px;"/>
      <path d="m21.66,56.91c-.86,0-1.65-.17-2.39-.5-.73-.33-1.37-.8-1.91-1.38-.54-.58-.96-1.26-1.26-2.02-.3-.76-.46-1.58-.46-2.45s.15-1.67.46-2.42c.3-.76.72-1.42,1.25-1.99.53-.57,1.16-1.02,1.9-1.34.73-.33,1.52-.49,2.36-.49s1.65.17,2.37.5c.73.34,1.35.79,1.88,1.36.53.57.95,1.23,1.25,1.99.3.76.46,1.56.46,2.4,0,.08,0,.17-.01.29,0,.12-.01.19-.01.22h-10.69c.05.7.21,1.35.49,1.95.28.6.64,1.12,1.07,1.56.43.44.92.78,1.49,1.03.56.25,1.16.38,1.8.38.42,0,.84-.06,1.25-.18.41-.12.8-.28,1.15-.48.35-.2.66-.45.94-.74.27-.29.49-.6.64-.95l1.03.28c-.19.44-.45.84-.78,1.21-.34.37-.73.68-1.17.95-.44.26-.93.47-1.46.62-.53.15-1.08.22-1.64.22Zm4.77-6.79c-.05-.72-.21-1.37-.48-1.96-.27-.59-.62-1.1-1.05-1.53-.43-.43-.92-.76-1.49-1.01-.56-.24-1.16-.36-1.8-.36s-1.24.12-1.8.36c-.56.24-1.06.58-1.49,1.01-.43.43-.77.94-1.03,1.55-.26.6-.41,1.25-.46,1.95h9.59Zm-4.87-8.17l-.82-.37,1.43-1.99h1.36l-1.96,2.36Z" style="fill: #737981; stroke-width: 0px;"/>
      <path d="m34.08,56.91c-.86,0-1.65-.17-2.37-.5-.73-.33-1.35-.79-1.88-1.37-.53-.58-.94-1.25-1.24-2.01-.3-.76-.44-1.57-.44-2.41s.15-1.67.46-2.43c.3-.76.72-1.44,1.26-2.01.54-.58,1.17-1.03,1.88-1.37.72-.34,1.5-.5,2.34-.5s1.63.17,2.35.5c.73.34,1.36.79,1.89,1.37.54.58.96,1.25,1.26,2.01.3.76.46,1.58.46,2.43s-.15,1.65-.46,2.41c-.3.77-.72,1.44-1.25,2.01-.53.58-1.16,1.03-1.89,1.37-.73.33-1.52.5-2.36.5Zm-4.75-6.25c0,.72.12,1.39.37,2.02.25.63.59,1.18,1.02,1.65.43.47.93.84,1.51,1.11.58.27,1.19.41,1.85.41s1.27-.14,1.85-.41c.58-.27,1.08-.65,1.51-1.13.43-.48.77-1.04,1.03-1.67.26-.63.39-1.31.39-2.05s-.13-1.39-.39-2.03c-.26-.63-.6-1.18-1.03-1.66-.43-.48-.93-.85-1.51-1.13-.58-.28-1.19-.42-1.85-.42s-1.25.14-1.82.42c-.58.28-1.08.66-1.52,1.15s-.78,1.05-1.03,1.7c-.25.65-.37,1.33-.37,2.05Z" style="fill: #737981; stroke-width: 0px;"/>
      <path d="m59.51,56.67h-1.17v-6.79c0-1.54-.24-2.68-.71-3.42-.48-.73-1.21-1.1-2.19-1.1-.51,0-1,.09-1.45.28-.45.19-.86.45-1.23.78-.37.33-.69.73-.96,1.19-.27.46-.49.97-.64,1.53v7.51h-1.17v-6.79c0-1.56-.23-2.7-.7-3.43-.47-.72-1.19-1.09-2.18-1.09-.5,0-.97.09-1.43.27-.45.18-.87.44-1.24.77-.37.33-.7.73-.98,1.19-.28.46-.5.97-.65,1.53v7.53h-1.17v-12.17h1.08v2.9c.51-.98,1.18-1.75,1.99-2.29.81-.55,1.71-.82,2.69-.82s1.86.3,2.49.91c.63.61,1.01,1.4,1.13,2.39,1.19-2.2,2.78-3.3,4.77-3.3,1.34,0,2.3.47,2.87,1.42.57.94.85,2.27.85,3.97v7Z" style="fill: #737981; stroke-width: 0px;"/>
      <path d="m69.78,56.68v-2.04c-.56.73-1.28,1.29-2.14,1.68-.86.39-1.8.58-2.82.58-.56,0-1.09-.1-1.58-.29-.49-.19-.92-.46-1.29-.79-.37-.34-.65-.73-.86-1.19-.2-.46-.3-.96-.3-1.49s.12-1.01.37-1.45c.25-.44.6-.82,1.05-1.13.45-.32.99-.57,1.6-.75.62-.18,1.3-.27,2.05-.27.66,0,1.32.06,1.99.18.67.12,1.27.28,1.8.48v-1.19c0-1.15-.33-2.07-.98-2.75-.66-.68-1.54-1.02-2.67-1.02-.61,0-1.24.12-1.91.37-.66.25-1.33.61-2,1.08l-.47-.79c1.58-1.06,3.06-1.59,4.45-1.59,1.46,0,2.62.43,3.47,1.28.85.85,1.28,2.02,1.28,3.52v7.58h-1.05m-4.73-.7c.91,0,1.74-.17,2.5-.5.76-.34,1.33-.79,1.71-1.37.27-.31.4-.62.4-.94v-2.15c-1.18-.44-2.4-.65-3.65-.65s-2.2.25-2.95.75c-.75.5-1.12,1.15-1.12,1.96,0,.41.08.79.23,1.15.16.36.38.67.66.92.28.26.61.46.99.61.38.15.79.22,1.23.22Z" style="fill: #737981; stroke-width: 0px;"/>
      <path d="m78.72,56.09c-.06.03-.17.09-.31.18-.15.09-.34.17-.56.25-.23.08-.48.15-.76.21-.28.06-.59.09-.91.09s-.64-.05-.92-.14c-.29-.09-.54-.23-.76-.42-.22-.19-.39-.41-.53-.68-.13-.27-.2-.58-.2-.94v-9.17h-1.71v-.96h1.71v-4.16h1.17v4.16h2.85v.96h-2.85v8.89c0,.45.16.79.47,1.02.31.23.67.34,1.08.34.48,0,.9-.08,1.25-.25.35-.16.56-.27.64-.32l.35.94Z" style="fill: #737981; stroke-width: 0px;"/>
      <path d="m79.51,41.75v-2.15h1.17v2.15h-1.17Zm0,14.93v-12.17h1.17v12.17h-1.17Z" style="fill: #737981; stroke-width: 0px;"/>
      <path d="m92.65,61.71v-7.65c-.64.94-1.35,1.65-2.16,2.13-.81.48-1.68.73-2.62.73-.84,0-1.6-.18-2.28-.53s-1.26-.82-1.75-1.4c-.49-.59-.87-1.25-1.13-2.01-.27-.76-.4-1.54-.4-2.35s.15-1.65.46-2.41c.3-.76.72-1.44,1.24-2.01.52-.58,1.14-1.04,1.85-1.38.71-.34,1.47-.52,2.28-.52.95,0,1.84.25,2.67.76.83.51,1.47,1.14,1.94,1.91v-2.46h1.08v17.2h-1.16Zm-4.48-5.85c.51,0,.99-.09,1.44-.26.44-.17.85-.4,1.23-.68.37-.28.71-.61,1.02-.99.3-.38.56-.79.78-1.21v-3.98c-.06-.45-.23-.88-.51-1.29-.28-.4-.63-.76-1.04-1.08-.41-.31-.86-.56-1.34-.75-.48-.19-.96-.28-1.43-.28-.7,0-1.35.15-1.94.46-.59.3-1.1.7-1.53,1.19-.43.49-.76,1.06-1,1.7-.23.64-.35,1.29-.35,1.94,0,.7.12,1.37.35,1.99.24.62.56,1.18.97,1.66.41.48.91.87,1.47,1.15.57.28,1.2.42,1.88.42Z" style="fill: #737981; stroke-width: 0px;"/>
      <path d="m105.2,56.67v-2.87c-.54.98-1.28,1.75-2.2,2.29-.92.54-1.92.82-2.99.82-2.61,0-3.91-1.79-3.91-5.38v-7.02h1.17v6.86c0,2.99,1.02,4.49,3.07,4.49.51,0,1.02-.09,1.51-.27.49-.18.95-.43,1.37-.75.42-.32.79-.71,1.11-1.16.32-.45.57-.95.76-1.5v-7.67h1.17v12.16h-1.05Z" style="fill: #737981; stroke-width: 0px;"/>
      <path d="m114,56.91c-.86,0-1.65-.17-2.39-.5-.73-.33-1.37-.8-1.91-1.38-.54-.58-.96-1.26-1.26-2.02-.3-.76-.46-1.58-.46-2.45s.15-1.67.46-2.42c.3-.76.72-1.42,1.25-1.99.53-.57,1.16-1.02,1.89-1.34.73-.33,1.52-.49,2.36-.49s1.65.17,2.37.5c.73.34,1.35.79,1.89,1.36.53.57.95,1.23,1.25,1.99.3.76.46,1.56.46,2.4,0,.08,0,.17-.01.29,0,.12-.01.19-.01.22h-10.69c.05.7.21,1.35.49,1.95.28.6.64,1.12,1.06,1.56.43.44.92.78,1.49,1.03.56.25,1.16.38,1.8.38.42,0,.84-.06,1.25-.18.41-.12.79-.28,1.15-.48.35-.2.66-.45.93-.74.27-.29.49-.6.64-.95l1.03.28c-.19.44-.45.84-.78,1.21-.34.37-.73.68-1.17.95-.45.26-.93.47-1.46.62-.53.15-1.08.22-1.64.22Zm4.77-6.79c-.05-.72-.21-1.37-.48-1.96-.27-.59-.62-1.1-1.05-1.53s-.92-.76-1.49-1.01c-.56-.24-1.16-.36-1.8-.36s-1.24.12-1.8.36c-.56.24-1.06.58-1.49,1.01-.43.43-.77.94-1.03,1.55-.26.6-.41,1.25-.46,1.95h9.59Z" style="fill: #737981; stroke-width: 0px;"/>
    </g>
    <g id="ENS">
      <path d="m23.71,31.6v3.88H.33V1.04h22.94v3.88H4.69v11.16h16.15v3.64H4.69v11.88h19.01Z" style="fill: #737981; stroke-width: 0px;"/>
      <path d="m30.89,9.19v26.29h-4.37V1.04h3.4l21.34,26.82V1.09h4.37v34.39h-3.69L30.89,9.19Z" style="fill: #737981; stroke-width: 0px;"/>
      <path d="m80.8,8.26c-.39-.45-.91-.89-1.55-1.31-.65-.42-1.38-.8-2.18-1.14-.81-.34-1.69-.61-2.64-.82-.95-.21-1.95-.32-2.98-.32-2.69,0-4.65.5-5.89,1.5-1.25,1-1.87,2.38-1.87,4.12,0,.94.18,1.71.54,2.33.36.61.91,1.14,1.67,1.58.76.44,1.71.82,2.84,1.14,1.13.32,2.47.66,4.03,1.02,1.78.39,3.39.83,4.83,1.33,1.44.5,2.67,1.12,3.69,1.87,1.02.74,1.79,1.65,2.33,2.72.53,1.07.8,2.38.8,3.93,0,1.65-.32,3.08-.97,4.29-.65,1.21-1.53,2.21-2.64,3.01-1.12.79-2.44,1.38-3.95,1.75-1.52.37-3.17.56-4.95.56-2.65,0-5.17-.41-7.54-1.24-2.38-.83-4.54-2.03-6.48-3.61l2.09-3.69c.52.55,1.19,1.1,2.01,1.65.82.55,1.76,1.04,2.81,1.48,1.05.44,2.18.79,3.4,1.07,1.21.27,2.48.41,3.81.41,2.46,0,4.37-.44,5.72-1.31,1.36-.87,2.04-2.18,2.04-3.93,0-.97-.22-1.79-.66-2.45-.44-.66-1.08-1.24-1.91-1.72-.84-.49-1.88-.91-3.13-1.29-1.25-.37-2.66-.75-4.24-1.14-1.75-.42-3.28-.87-4.61-1.36s-2.43-1.07-3.32-1.75c-.89-.68-1.56-1.5-2.01-2.47-.45-.97-.68-2.13-.68-3.49,0-1.65.31-3.1.92-4.37.61-1.26,1.47-2.33,2.57-3.2,1.1-.87,2.41-1.53,3.93-1.96,1.52-.44,3.17-.66,4.95-.66,2.33,0,4.43.36,6.31,1.07,1.87.71,3.54,1.67,5,2.86l-2.04,3.54Z" style="fill: #737981; stroke-width: 0px;"/>
    </g>
    <polygon id="fleche" points="106.14 20.06 94.98 32.45 99.79 16.49 110.94 4.1 106.14 20.06" style="fill: #95c124; fill-rule: evenodd; stroke-width: 0px;"/>
    <g id="er">
      <path d="m93.06,32.69c-4.75-3.27-7.58-8.66-7.58-14.41,0-9.64,7.85-17.49,17.49-17.49,2.15,0,4.25.39,6.25,1.16l-2.78,3.42c-1.13-.31-2.3-.46-3.48-.46-7.37,0-13.37,6-13.37,13.37,0,4,1.77,7.75,4.85,10.31l.1.09-1.26,4.18-.23-.16Z" style="fill: #737981; stroke-width: 0px;"/>
      <path d="m102.96,35.76c-2.5,0-4.91-.52-7.18-1.54l-.26-.12,2.92-3.24.13.04c1.42.49,2.89.74,4.39.74,6.55,0,12.23-4.88,13.22-11.34v-.09s-8.55,0-8.55,0l1.02-3.44h11.74c.06.59.06.83.06,1.39v.1c0,.58-.03,1.17-.09,1.76-.9,8.97-8.38,15.73-17.4,15.73Z" style="fill: #737981; stroke-width: 0px;"/>
    </g>
    <path d="m114.21,1.49l-1.64,2.85-.31-.18-.64-3.24-1.24,2.16-.4-.23,1.64-2.85.32.18c.05.33.11.63.17.93.06.29.12.58.18.87.05.24.1.48.14.72.05.24.09.48.14.73l1.24-2.16.4.23Z" style="fill: #737981; stroke-width: 0px;"/>
  </g>
</svg>