<svg xmlns="http://www.w3.org/2000/svg" height="1000" width="1000">
<rect width="1000" height="1000" fill="white" />
<polygon points="0.0,1000.0 31.25,1000.0 15.625,972.9367061317363" fill="red" />
<polygon points="31.25,1000.0 62.5,1000.0 46.875,972.9367061317363" fill="green" />
<polygon points="46.875,972.9367061317363 31.25,945.8734122634726 15.625,972.9367061317363" fill="blue" />
<polygon points="62.5,1000.0 93.75,1000.0 78.125,972.9367061317363" fill="red" />
<polygon points="93.75,1000.0 125.0,1000.0 109.375,972.9367061317363" fill="green" />
<polygon points="109.375,972.9367061317363 93.75,945.8734122634726 78.125,972.9367061317363" fill="blue" />
<polygon points="93.75,945.8734122634726 78.125,918.8101183952089 62.5,945.8734122634726" fill="red" />
<polygon points="78.125,918.8101183952089 62.5,891.7468245269451 46.875,918.8101183952089" fill="green" />
<polygon points="46.875,918.8101183952089 31.25,945.8734122634726 62.5,945.8734122634726" fill="blue" />
<polygon points="125.0,1000.0 156.25,1000.0 140.625,972.9367061317363" fill="red" />
<polygon points="156.25,1000.0 187.5,1000.0 171.875,972.9367061317363" fill="green" />
<polygon points="171.875,972.9367061317363 156.25,945.8734122634726 140.625,972.9367061317363" fill="blue" />
<polygon points="187.5,1000.0 218.75,1000.0 203.125,972.9367061317363" fill="red" />
<polygon points="218.75,1000.0 250.0,1000.0 234.375,972.9367061317363" fill="green" />
<polygon points="234.375,972.9367061317363 218.75,945.8734122634726 203.125,972.9367061317363" fill="blue" />
<polygon points="218.75,945.8734122634726 203.125,918.8101183952089 187.5,945.8734122634726" fill="red" />
<polygon points="203.125,918.8101183952089 187.5,891.7468245269451 171.875,918.8101183952089" fill="green" />
<polygon points="171.875,918.8101183952089 156.25,945.8734122634726 187.5,945.8734122634726" fill="blue" />
<polygon points="187.5,891.7468245269451 171.875,864.6835306586814 156.25,891.7468245269451" fill="red" />
<polygon points="171.875,864.6835306586814 156.25,837.6202367904177 140.625,864.6835306586814" fill="green" />
<polygon points="140.625,864.6835306586814 125.0,891.7468245269451 156.25,891.7468245269451" fill="blue" />
<polygon points="156.25,837.6202367904177 140.625,810.556942922154 125.0,837.6202367904177" fill="red" />
<polygon points="140.625,810.556942922154 125.0,783.4936490538903 109.375,810.556942922154" fill="green" />
<polygon points="109.375,810.556942922154 93.75,837.6202367904177 125.0,837.6202367904177" fill="blue" />
<polygon points="93.75,837.6202367904177 78.125,864.6835306586814 109.375,864.6835306586814" fill="red" />
<polygon points="78.125,864.6835306586814 62.5,891.7468245269451 93.75,891.7468245269451" fill="green" />
<polygon points="93.75,891.7468245269451 125.0,891.7468245269451 109.375,864.6835306586814" fill="blue" />
<polygon points="250.0,1000.0 281.25,1000.0 265.625,972.9367061317363" fill="red" />
<polygon points="281.25,1000.0 312.5,1000.0 296.875,972.9367061317363" fill="green" />
<polygon points="296.875,972.9367061317363 281.25,945.8734122634726 265.625,972.9367061317363" fill="blue" />
<polygon points="312.5,1000.0 343.75,1000.0 328.125,972.9367061317363" fill="red" />
<polygon points="343.75,1000.0 375.0,1000.0 359.375,972.9367061317363" fill="green" />
<polygon points="359.375,972.9367061317363 343.75,945.8734122634726 328.125,972.9367061317363" fill="blue" />
<polygon points="343.75,945.8734122634726 328.125,918.8101183952089 312.5,945.8734122634726" fill="red" />
<polygon points="328.125,918.8101183952089 312.5,891.7468245269451 296.875,918.8101183952089" fill="green" />
<polygon points="296.875,918.8101183952089 281.25,945.8734122634726 312.5,945.8734122634726" fill="blue" />
<polygon points="375.0,1000.0 406.25,1000.0 390.625,972.9367061317363" fill="red" />
<polygon points="406.25,1000.0 437.5,1000.0 421.875,972.9367061317363" fill="green" />
<polygon points="421.875,972.9367061317363 406.25,945.8734122634726 390.625,972.9367061317363" fill="blue" />
<polygon points="437.5,1000.0 468.75,1000.0 453.125,972.9367061317363" fill="red" />
<polygon points="468.75,1000.0 500.0,1000.0 484.375,972.9367061317363" fill="green" />
<polygon points="484.375,972.9367061317363 468.75,945.8734122634726 453.125,972.9367061317363" fill="blue" />
<polygon points="468.75,945.8734122634726 453.125,918.8101183952089 437.5,945.8734122634726" fill="red" />
<polygon points="453.125,918.8101183952089 437.5,891.7468245269451 421.875,918.8101183952089" fill="green" />
<polygon points="421.875,918.8101183952089 406.25,945.8734122634726 437.5,945.8734122634726" fill="blue" />
<polygon points="437.5,891.7468245269451 421.875,864.6835306586814 406.25,891.7468245269451" fill="red" />
<polygon points="421.875,864.6835306586814 406.25,837.6202367904177 390.625,864.6835306586814" fill="green" />
<polygon points="390.625,864.6835306586814 375.0,891.7468245269451 406.25,891.7468245269451" fill="blue" />
<polygon points="406.25,837.6202367904177 390.625,810.556942922154 375.0,837.6202367904177" fill="red" />
<polygon points="390.625,810.556942922154 375.0,783.4936490538903 359.375,810.556942922154" fill="green" />
<polygon points="359.375,810.556942922154 343.75,837.6202367904177 375.0,837.6202367904177" fill="blue" />
<polygon points="343.75,837.6202367904177 328.125,864.6835306586814 359.375,864.6835306586814" fill="red" />
<polygon points="328.125,864.6835306586814 312.5,891.7468245269451 343.75,891.7468245269451" fill="green" />
<polygon points="343.75,891.7468245269451 375.0,891.7468245269451 359.375,864.6835306586814" fill="blue" />
<polygon points="375.0,783.4936490538903 359.375,756.4303551856266 343.75,783.4936490538903" fill="red" />
<polygon points="359.375,756.4303551856266 343.75,729.3670613173629 328.125,756.4303551856266" fill="green" />
<polygon points="328.125,756.4303551856266 312.5,783.4936490538903 343.75,783.4936490538903" fill="blue" />
<polygon points="343.75,729.3670613173629 328.125,702.3037674490992 312.5,729.3670613173629" fill="red" />
<polygon points="328.125,702.3037674490992 312.5,675.2404735808354 296.875,702.3037674490992" fill="green" />
<polygon points="296.875,702.3037674490992 281.25,729.3670613173629 312.5,729.3670613173629" fill="blue" />
<polygon points="281.25,729.3670613173629 265.625,756.4303551856266 296.875,756.4303551856266" fill="red" />
<polygon points="265.625,756.4303551856266 250.0,783.4936490538903 281.25,783.4936490538903" fill="green" />
<polygon points="281.25,783.4936490538903 312.5,783.4936490538903 296.875,756.4303551856266" fill="blue" />
<polygon points="312.5,675.2404735808354 296.875,648.1771797125717 281.25,675.2404735808354" fill="red" />
<polygon points="296.875,648.1771797125717 281.25,621.113885844308 265.625,648.1771797125717" fill="green" />
<polygon points="265.625,648.1771797125717 250.0,675.2404735808354 281.25,675.2404735808354" fill="blue" />
<polygon points="281.25,621.113885844308 265.625,594.0505919760444 250.0,621.113885844308" fill="red" />
<polygon points="265.625,594.0505919760444 250.0,566.9872981077807 234.375,594.0505919760444" fill="green" />
<polygon points="234.375,594.0505919760444 218.75,621.113885844308 250.0,621.113885844308" fill="blue" />
<polygon points="218.75,621.113885844308 203.125,648.1771797125717 234.375,648.1771797125717" fill="red" />
<polygon points="203.125,648.1771797125717 187.5,675.2404735808354 218.75,675.2404735808354" fill="green" />
<polygon points="218.75,675.2404735808354 250.0,675.2404735808354 234.375,648.1771797125717" fill="blue" />
<polygon points="187.5,675.2404735808354 171.875,702.3037674490992 203.125,702.3037674490992" fill="red" />
<polygon points="171.875,702.3037674490992 156.25,729.3670613173629 187.5,729.3670613173629" fill="green" />
<polygon points="187.5,729.3670613173629 218.75,729.3670613173629 203.125,702.3037674490992" fill="blue" />
<polygon points="156.25,729.3670613173629 140.625,756.4303551856266 171.875,756.4303551856266" fill="red" />
<polygon points="140.625,756.4303551856266 125.0,783.4936490538903 156.25,783.4936490538903" fill="green" />
<polygon points="156.25,783.4936490538903 187.5,783.4936490538903 171.875,756.4303551856266" fill="blue" />
<polygon points="187.5,783.4936490538903 218.75,783.4936490538903 203.125,756.4303551856266" fill="red" />
<polygon points="218.75,783.4936490538903 250.0,783.4936490538903 234.375,756.4303551856266" fill="green" />
<polygon points="234.375,756.4303551856266 218.75,729.3670613173629 203.125,756.4303551856266" fill="blue" />
<polygon points="500.0,1000.0 531.25,1000.0 515.625,972.9367061317363" fill="red" />
<polygon points="531.25,1000.0 562.5,1000.0 546.875,972.9367061317363" fill="green" />
<polygon points="546.875,972.9367061317363 531.25,945.8734122634726 515.625,972.9367061317363" fill="blue" />
<polygon points="562.5,1000.0 593.75,1000.0 578.125,972.9367061317363" fill="red" />
<polygon points="593.75,1000.0 625.0,1000.0 609.375,972.9367061317363" fill="green" />
<polygon points="609.375,972.9367061317363 593.75,945.8734122634726 578.125,972.9367061317363" fill="blue" />
<polygon points="593.75,945.8734122634726 578.125,918.8101183952089 562.5,945.8734122634726" fill="red" />
<polygon points="578.125,918.8101183952089 562.5,891.7468245269451 546.875,918.8101183952089" fill="green" />
<polygon points="546.875,918.8101183952089 531.25,945.8734122634726 562.5,945.8734122634726" fill="blue" />
<polygon points="625.0,1000.0 656.25,1000.0 640.625,972.9367061317363" fill="red" />
<polygon points="656.25,1000.0 687.5,1000.0 671.875,972.9367061317363" fill="green" />
<polygon points="671.875,972.9367061317363 656.25,945.8734122634726 640.625,972.9367061317363" fill="blue" />
<polygon points="687.5,1000.0 718.75,1000.0 703.125,972.9367061317363" fill="red" />
<polygon points="718.75,1000.0 750.0,1000.0 734.375,972.9367061317363" fill="green" />
<polygon points="734.375,972.9367061317363 718.75,945.8734122634726 703.125,972.9367061317363" fill="blue" />
<polygon points="718.75,945.8734122634726 703.125,918.8101183952089 687.5,945.8734122634726" fill="red" />
<polygon points="703.125,918.8101183952089 687.5,891.7468245269451 671.875,918.8101183952089" fill="green" />
<polygon points="671.875,918.8101183952089 656.25,945.8734122634726 687.5,945.8734122634726" fill="blue" />
<polygon points="687.5,891.7468245269451 671.875,864.6835306586814 656.25,891.7468245269451" fill="red" />
<polygon points="671.875,864.6835306586814 656.25,837.6202367904177 640.625,864.6835306586814" fill="green" />
<polygon points="640.625,864.6835306586814 625.0,891.7468245269451 656.25,891.7468245269451" fill="blue" />
<polygon points="656.25,837.6202367904177 640.625,810.556942922154 625.0,837.6202367904177" fill="red" />
<polygon points="640.625,810.556942922154 625.0,783.4936490538903 609.375,810.556942922154" fill="green" />
<polygon points="609.375,810.556942922154 593.75,837.6202367904177 625.0,837.6202367904177" fill="blue" />
<polygon points="593.75,837.6202367904177 578.125,864.6835306586814 609.375,864.6835306586814" fill="red" />
<polygon points="578.125,864.6835306586814 562.5,891.7468245269451 593.75,891.7468245269451" fill="green" />
<polygon points="593.75,891.7468245269451 625.0,891.7468245269451 609.375,864.6835306586814" fill="blue" />
<polygon points="750.0,1000.0 781.25,1000.0 765.625,972.9367061317363" fill="red" />
<polygon points="781.25,1000.0 812.5,1000.0 796.875,972.9367061317363" fill="green" />
<polygon points="796.875,972.9367061317363 781.25,945.8734122634726 765.625,972.9367061317363" fill="blue" />
<polygon points="812.5,1000.0 843.75,1000.0 828.125,972.9367061317363" fill="red" />
<polygon points="843.75,1000.0 875.0,1000.0 859.375,972.9367061317363" fill="green" />
<polygon points="859.375,972.9367061317363 843.75,945.8734122634726 828.125,972.9367061317363" fill="blue" />
<polygon points="843.75,945.8734122634726 828.125,918.8101183952089 812.5,945.8734122634726" fill="red" />
<polygon points="828.125,918.8101183952089 812.5,891.7468245269451 796.875,918.8101183952089" fill="green" />
<polygon points="796.875,918.8101183952089 781.25,945.8734122634726 812.5,945.8734122634726" fill="blue" />
<polygon points="875.0,1000.0 906.25,1000.0 890.625,972.9367061317363" fill="red" />
<polygon points="906.25,1000.0 937.5,1000.0 921.875,972.9367061317363" fill="green" />
<polygon points="921.875,972.9367061317363 906.25,945.8734122634726 890.625,972.9367061317363" fill="blue" />
<polygon points="937.5,1000.0 968.75,1000.0 953.125,972.9367061317363" fill="red" />
<polygon points="968.75,1000.0 1000.0,1000.0 984.375,972.9367061317363" fill="green" />
<polygon points="984.375,972.9367061317363 968.75,945.8734122634726 953.125,972.9367061317363" fill="blue" />
<polygon points="968.75,945.8734122634726 953.125,918.8101183952089 937.5,945.8734122634726" fill="red" />
<polygon points="953.125,918.8101183952089 937.5,891.7468245269451 921.875,918.8101183952089" fill="green" />
<polygon points="921.875,918.8101183952089 906.25,945.8734122634726 937.5,945.8734122634726" fill="blue" />
<polygon points="937.5,891.7468245269451 921.875,864.6835306586814 906.25,891.7468245269451" fill="red" />
<polygon points="921.875,864.6835306586814 906.25,837.6202367904177 890.625,864.6835306586814" fill="green" />
<polygon points="890.625,864.6835306586814 875.0,891.7468245269451 906.25,891.7468245269451" fill="blue" />
<polygon points="906.25,837.6202367904177 890.625,810.556942922154 875.0,837.6202367904177" fill="red" />
<polygon points="890.625,810.556942922154 875.0,783.4936490538903 859.375,810.556942922154" fill="green" />
<polygon points="859.375,810.556942922154 843.75,837.6202367904177 875.0,837.6202367904177" fill="blue" />
<polygon points="843.75,837.6202367904177 828.125,864.6835306586814 859.375,864.6835306586814" fill="red" />
<polygon points="828.125,864.6835306586814 812.5,891.7468245269451 843.75,891.7468245269451" fill="green" />
<polygon points="843.75,891.7468245269451 875.0,891.7468245269451 859.375,864.6835306586814" fill="blue" />
<polygon points="875.0,783.4936490538903 859.375,756.4303551856266 843.75,783.4936490538903" fill="red" />
<polygon points="859.375,756.4303551856266 843.75,729.3670613173629 828.125,756.4303551856266" fill="green" />
<polygon points="828.125,756.4303551856266 812.5,783.4936490538903 843.75,783.4936490538903" fill="blue" />
<polygon points="843.75,729.3670613173629 828.125,702.3037674490992 812.5,729.3670613173629" fill="red" />
<polygon points="828.125,702.3037674490992 812.5,675.2404735808354 796.875,702.3037674490992" fill="green" />
<polygon points="796.875,702.3037674490992 781.25,729.3670613173629 812.5,729.3670613173629" fill="blue" />
<polygon points="781.25,729.3670613173629 765.625,756.4303551856266 796.875,756.4303551856266" fill="red" />
<polygon points="765.625,756.4303551856266 750.0,783.4936490538903 781.25,783.4936490538903" fill="green" />
<polygon points="781.25,783.4936490538903 812.5,783.4936490538903 796.875,756.4303551856266" fill="blue" />
<polygon points="812.5,675.2404735808354 796.875,648.1771797125717 781.25,675.2404735808354" fill="red" />
<polygon points="796.875,648.1771797125717 781.25,621.113885844308 765.625,648.1771797125717" fill="green" />
<polygon points="765.625,648.1771797125717 750.0,675.2404735808354 781.25,675.2404735808354" fill="blue" />
<polygon points="781.25,621.113885844308 765.625,594.0505919760444 750.0,621.113885844308" fill="red" />
<polygon points="765.625,594.0505919760444 750.0,566.9872981077807 734.375,594.0505919760444" fill="green" />
<polygon points="734.375,594.0505919760444 718.75,621.113885844308 750.0,621.113885844308" fill="blue" />
<polygon points="718.75,621.113885844308 703.125,648.1771797125717 734.375,648.1771797125717" fill="red" />
<polygon points="703.125,648.1771797125717 687.5,675.2404735808354 718.75,675.2404735808354" fill="green" />
<polygon points="718.75,675.2404735808354 750.0,675.2404735808354 734.375,648.1771797125717" fill="blue" />
<polygon points="687.5,675.2404735808354 671.875,702.3037674490992 703.125,702.3037674490992" fill="red" />
<polygon points="671.875,702.3037674490992 656.25,729.3670613173629 687.5,729.3670613173629" fill="green" />
<polygon points="687.5,729.3670613173629 718.75,729.3670613173629 703.125,702.3037674490992" fill="blue" />
<polygon points="656.25,729.3670613173629 640.625,756.4303551856266 671.875,756.4303551856266" fill="red" />
<polygon points="640.625,756.4303551856266 625.0,783.4936490538903 656.25,783.4936490538903" fill="green" />
<polygon points="656.25,783.4936490538903 687.5,783.4936490538903 671.875,756.4303551856266" fill="blue" />
<polygon points="687.5,783.4936490538903 718.75,783.4936490538903 703.125,756.4303551856266" fill="red" />
<polygon points="718.75,783.4936490538903 750.0,783.4936490538903 734.375,756.4303551856266" fill="green" />
<polygon points="734.375,756.4303551856266 718.75,729.3670613173629 703.125,756.4303551856266" fill="blue" />
<polygon points="750.0,566.9872981077807 734.375,539.924004239517 718.75,566.9872981077807" fill="red" />
<polygon points="734.375,539.924004239517 718.75,512.8607103712533 703.125,539.924004239517" fill="green" />
<polygon points="703.125,539.924004239517 687.5,566.9872981077807 718.75,566.9872981077807" fill="blue" />
<polygon points="718.75,512.8607103712533 703.125,485.79741650298956 687.5,512.8607103712533" fill="red" />
<polygon points="703.125,485.79741650298956 687.5,458.73412263472585 671.875,485.79741650298956" fill="green" />
<polygon points="671.875,485.79741650298956 656.25,512.8607103712533 687.5,512.8607103712533" fill="blue" />
<polygon points="656.25,512.8607103712533 640.625,539.924004239517 671.875,539.924004239517" fill="red" />
<polygon points="640.625,539.924004239517 625.0,566.9872981077807 656.25,566.9872981077807" fill="green" />
<polygon points="656.25,566.9872981077807 687.5,566.9872981077807 671.875,539.924004239517" fill="blue" />
<polygon points="687.5,458.73412263472585 671.875,431.67082876646214 656.25,458.73412263472585" fill="red" />
<polygon points="671.875,431.67082876646214 656.25,404.6075348981984 640.625,431.67082876646214" fill="green" />
<polygon points="640.625,431.67082876646214 625.0,458.73412263472585 656.25,458.73412263472585" fill="blue" />
<polygon points="656.25,404.6075348981984 640.625,377.5442410299347 625.0,404.6075348981984" fill="red" />
<polygon points="640.625,377.5442410299347 625.0,350.48094716167105 609.375,377.5442410299347" fill="green" />
<polygon points="609.375,377.5442410299347 593.75,404.6075348981984 625.0,404.6075348981984" fill="blue" />
<polygon points="593.75,404.6075348981984 578.125,431.67082876646214 609.375,431.67082876646214" fill="red" />
<polygon points="578.125,431.67082876646214 562.5,458.73412263472585 593.75,458.73412263472585" fill="green" />
<polygon points="593.75,458.73412263472585 625.0,458.73412263472585 609.375,431.67082876646214" fill="blue" />
<polygon points="562.5,458.73412263472585 546.875,485.79741650298956 578.125,485.79741650298956" fill="red" />
<polygon points="546.875,485.79741650298956 531.25,512.8607103712533 562.5,512.8607103712533" fill="green" />
<polygon points="562.5,512.8607103712533 593.75,512.8607103712533 578.125,485.79741650298956" fill="blue" />
<polygon points="531.25,512.8607103712533 515.625,539.924004239517 546.875,539.924004239517" fill="red" />
<polygon points="515.625,539.924004239517 500.0,566.9872981077807 531.25,566.9872981077807" fill="green" />
<polygon points="531.25,566.9872981077807 562.5,566.9872981077807 546.875,539.924004239517" fill="blue" />
<polygon points="562.5,566.9872981077807 593.75,566.9872981077807 578.125,539.924004239517" fill="red" />
<polygon points="593.75,566.9872981077807 625.0,566.9872981077807 609.375,539.924004239517" fill="green" />
<polygon points="609.375,539.924004239517 593.75,512.8607103712533 578.125,539.924004239517" fill="blue" />
<polygon points="625.0,350.48094716167105 609.375,323.41765329340734 593.75,350.48094716167105" fill="red" />
<polygon points="609.375,323.41765329340734 593.75,296.3543594251436 578.125,323.41765329340734" fill="green" />
<polygon points="578.125,323.41765329340734 562.5,350.48094716167105 593.75,350.48094716167105" fill="blue" />
<polygon points="593.75,296.3543594251436 578.125,269.2910655568799 562.5,296.3543594251436" fill="red" />
<polygon points="578.125,269.2910655568799 562.5,242.22777168861623 546.875,269.2910655568799" fill="green" />
<polygon points="546.875,269.2910655568799 531.25,296.3543594251436 562.5,296.3543594251436" fill="blue" />
<polygon points="531.25,296.3543594251436 515.625,323.41765329340734 546.875,323.41765329340734" fill="red" />
<polygon points="515.625,323.41765329340734 500.0,350.48094716167105 531.25,350.48094716167105" fill="green" />
<polygon points="531.25,350.48094716167105 562.5,350.48094716167105 546.875,323.41765329340734" fill="blue" />
<polygon points="562.5,242.22777168861623 546.875,215.16447782035254 531.25,242.22777168861623" fill="red" />
<polygon points="546.875,215.16447782035254 531.25,188.10118395208883 515.625,215.16447782035254" fill="green" />
<polygon points="515.625,215.16447782035254 500.0,242.22777168861623 531.25,242.22777168861623" fill="blue" />
<polygon points="531.25,188.10118395208883 515.625,161.03789008382512 500.0,188.10118395208883" fill="red" />
<polygon points="515.625,161.03789008382512 500.0,133.9745962155614 484.375,161.03789008382512" fill="green" />
<polygon points="484.375,161.03789008382512 468.75,188.10118395208883 500.0,188.10118395208883" fill="blue" />
<polygon points="468.75,188.10118395208883 453.125,215.16447782035254 484.375,215.16447782035254" fill="red" />
<polygon points="453.125,215.16447782035254 437.5,242.22777168861623 468.75,242.22777168861623" fill="green" />
<polygon points="468.75,242.22777168861623 500.0,242.22777168861623 484.375,215.16447782035254" fill="blue" />
<polygon points="437.5,242.22777168861623 421.875,269.2910655568799 453.125,269.2910655568799" fill="red" />
<polygon points="421.875,269.2910655568799 406.25,296.3543594251436 437.5,296.3543594251436" fill="green" />
<polygon points="437.5,296.3543594251436 468.75,296.3543594251436 453.125,269.2910655568799" fill="blue" />
<polygon points="406.25,296.3543594251436 390.625,323.41765329340734 421.875,323.41765329340734" fill="red" />
<polygon points="390.625,323.41765329340734 375.0,350.48094716167105 406.25,350.48094716167105" fill="green" />
<polygon points="406.25,350.48094716167105 437.5,350.48094716167105 421.875,323.41765329340734" fill="blue" />
<polygon points="437.5,350.48094716167105 468.75,350.48094716167105 453.125,323.41765329340734" fill="red" />
<polygon points="468.75,350.48094716167105 500.0,350.48094716167105 484.375,323.41765329340734" fill="green" />
<polygon points="484.375,323.41765329340734 468.75,296.3543594251436 453.125,323.41765329340734" fill="blue" />
<polygon points="375.0,350.48094716167105 359.375,377.5442410299347 390.625,377.5442410299347" fill="red" />
<polygon points="359.375,377.5442410299347 343.75,404.6075348981984 375.0,404.6075348981984" fill="green" />
<polygon points="375.0,404.6075348981984 406.25,404.6075348981984 390.625,377.5442410299347" fill="blue" />
<polygon points="343.75,404.6075348981984 328.125,431.67082876646214 359.375,431.67082876646214" fill="red" />
<polygon points="328.125,431.67082876646214 312.5,458.73412263472585 343.75,458.73412263472585" fill="green" />
<polygon points="343.75,458.73412263472585 375.0,458.73412263472585 359.375,431.67082876646214" fill="blue" />
<polygon points="375.0,458.73412263472585 406.25,458.73412263472585 390.625,431.67082876646214" fill="red" />
<polygon points="406.25,458.73412263472585 437.5,458.73412263472585 421.875,431.67082876646214" fill="green" />
<polygon points="421.875,431.67082876646214 406.25,404.6075348981984 390.625,431.67082876646214" fill="blue" />
<polygon points="312.5,458.73412263472585 296.875,485.79741650298956 328.125,485.79741650298956" fill="red" />
<polygon points="296.875,485.79741650298956 281.25,512.8607103712533 312.5,512.8607103712533" fill="green" />
<polygon points="312.5,512.8607103712533 343.75,512.8607103712533 328.125,485.79741650298956" fill="blue" />
<polygon points="281.25,512.8607103712533 265.625,539.924004239517 296.875,539.924004239517" fill="red" />
<polygon points="265.625,539.924004239517 250.0,566.9872981077807 281.25,566.9872981077807" fill="green" />
<polygon points="281.25,566.9872981077807 312.5,566.9872981077807 296.875,539.924004239517" fill="blue" />
<polygon points="312.5,566.9872981077807 343.75,566.9872981077807 328.125,539.924004239517" fill="red" />
<polygon points="343.75,566.9872981077807 375.0,566.9872981077807 359.375,539.924004239517" fill="green" />
<polygon points="359.375,539.924004239517 343.75,512.8607103712533 328.125,539.924004239517" fill="blue" />
<polygon points="375.0,566.9872981077807 406.25,566.9872981077807 390.625,539.924004239517" fill="red" />
<polygon points="406.25,566.9872981077807 437.5,566.9872981077807 421.875,539.924004239517" fill="green" />
<polygon points="421.875,539.924004239517 406.25,512.8607103712533 390.625,539.924004239517" fill="blue" />
<polygon points="437.5,566.9872981077807 468.75,566.9872981077807 453.125,539.924004239517" fill="red" />
<polygon points="468.75,566.9872981077807 500.0,566.9872981077807 484.375,539.924004239517" fill="green" />
<polygon points="484.375,539.924004239517 468.75,512.8607103712533 453.125,539.924004239517" fill="blue" />
<polygon points="468.75,512.8607103712533 453.125,485.79741650298956 437.5,512.8607103712533" fill="red" />
<polygon points="453.125,485.79741650298956 437.5,458.73412263472585 421.875,485.79741650298956" fill="green" />
<polygon points="421.875,485.79741650298956 406.25,512.8607103712533 437.5,512.8607103712533" fill="blue" />
</svg>
